<svg xmlns="http://www.w3.org/2000/svg" viewBox="0 0 1024 1024" role="img" aria-labelledby="title description">
  <title id="title">BusSafe Alberta</title>
  <description id="description">A friendly yellow school bus on a white panel over a dotted navy tile.</description>
  <defs>
    <pattern id="dots" width="72" height="72" patternUnits="userSpaceOnUse">
      <circle cx="12" cy="12" r="6" fill="#6B7680" opacity="0.42"/>
    </pattern>
    <linearGradient id="panel" x1="0" y1="0" x2="0" y2="1">
      <stop offset="0" stop-color="#E7E8E7"/>
      <stop offset="0.2" stop-color="#FAFAF7"/>
      <stop offset="1" stop-color="#FFFFFF"/>
    </linearGradient>
    <linearGradient id="bus" x1="0" y1="0" x2="0" y2="1">
      <stop offset="0" stop-color="#F4C23D"/>
      <stop offset="1" stop-color="#FFCD43"/>
    </linearGradient>
    <filter id="panel-shadow" x="-20%" y="-10%" width="140%" height="125%">
      <feDropShadow dx="0" dy="20" stdDeviation="24" flood-color="#000000" flood-opacity="0.34"/>
    </filter>
    <filter id="bus-shadow" x="-15%" y="-15%" width="130%" height="140%">
      <feDropShadow dx="0" dy="14" stdDeviation="12" flood-color="#122536" flood-opacity="0.24"/>
    </filter>
  </defs>
  <rect width="1024" height="1024" rx="96" fill="#171D23"/>
  <rect width="1024" height="1024" rx="96" fill="url(#dots)"/>
  <rect x="132" y="34" width="760" height="912" rx="54" fill="url(#panel)" filter="url(#panel-shadow)"/>
  <g filter="url(#bus-shadow)">
    <path d="M294 294c0-66 54-120 120-120h196c66 0 120 54 120 120v350c0 58-47 105-105 105H399c-58 0-105-47-105-105V294Z" fill="url(#bus)"/>
    <path d="M314 291c0-54 44-98 98-98h200c54 0 98 44 98 98v34H314v-34Z" fill="#F1BD36"/>
    <circle cx="390" cy="222" r="20" fill="#C7463D"/>
    <circle cx="512" cy="222" r="15" fill="#A27B2F"/>
    <circle cx="634" cy="222" r="20" fill="#C7463D"/>
    <rect x="332" y="280" width="160" height="159" rx="24" fill="#102D43"/>
    <rect x="532" y="280" width="160" height="159" rx="24" fill="#102D43"/>
    <path d="m467 295-55 128h-53l56-128h52Z" fill="#FFFFFF" opacity="0.22"/>
    <path d="m667 295-55 128h-53l56-128h52Z" fill="#FFFFFF" opacity="0.22"/>
    <rect x="326" y="477" width="372" height="24" rx="12" fill="#173247"/>
    <rect x="382" y="538" width="260" height="18" rx="9" fill="#173247"/>
    <rect x="414" y="578" width="196" height="18" rx="9" fill="#173247"/>
    <circle cx="354" cy="650" r="45" fill="#FFFFFF"/>
    <circle cx="354" cy="650" r="28" fill="#F8C63D"/>
    <circle cx="670" cy="650" r="45" fill="#FFFFFF"/>
    <circle cx="670" cy="650" r="28" fill="#F8C63D"/>
    <rect x="334" y="727" width="358" height="27" rx="13.5" fill="#D8A92F" opacity="0.45"/>
    <rect x="330" y="761" width="92" height="59" rx="22" fill="#173247"/>
    <rect x="602" y="761" width="92" height="59" rx="22" fill="#173247"/>
    <rect x="350" y="776" width="52" height="12" rx="6" fill="#6F8491"/>
    <rect x="622" y="776" width="52" height="12" rx="6" fill="#6F8491"/>
  </g>
</svg>
